<svg width="304" height="30" viewBox="0 0 304 30" fill="none" xmlns="http://www.w3.org/2000/svg">
<path d="M13.68 29.36C12.6667 29.36 11.8933 29.08 11.36 28.52C10.8267 27.96 10.56 27.1733 10.56 26.16V5.92H3.48C2.65333 5.92 2.01333 5.69333 1.56 5.24C1.10667 4.78667 0.88 4.16 0.88 3.36C0.88 2.53333 1.10667 1.90667 1.56 1.48C2.01333 1.02667 2.65333 0.799998 3.48 0.799998H23.84C24.6667 0.799998 25.3067 1.02667 25.76 1.48C26.2133 1.90667 26.44 2.53333 26.44 3.36C26.44 4.16 26.2133 4.78667 25.76 5.24C25.3067 5.69333 24.6667 5.92 23.84 5.92H16.76V26.16C16.76 27.1733 16.4933 27.96 15.96 28.52C15.4533 29.08 14.6933 29.36 13.68 29.36ZM32.2334 29.36C31.2201 29.36 30.4468 29.08 29.9134 28.52C29.3801 27.96 29.1134 27.1733 29.1134 26.16V3.96C29.1134 2.92 29.3801 2.13333 29.9134 1.6C30.4734 1.06666 31.2601 0.799998 32.2734 0.799998H41.9934C45.1401 0.799998 47.5668 1.56 49.2734 3.08C50.9801 4.6 51.8334 6.72 51.8334 9.44C51.8334 11.2 51.4468 12.72 50.6734 14C49.9001 15.28 48.7801 16.2667 47.3134 16.96C45.8734 17.6533 44.1001 18 41.9934 18L42.3134 17.32H43.9534C45.0734 17.32 46.0468 17.6 46.8734 18.16C47.7268 18.6933 48.4601 19.52 49.0734 20.64L51.5534 25.24C51.9268 25.9067 52.1001 26.56 52.0734 27.2C52.0468 27.84 51.8068 28.36 51.3534 28.76C50.9001 29.16 50.2334 29.36 49.3534 29.36C48.4734 29.36 47.7534 29.1733 47.1934 28.8C46.6601 28.4267 46.1801 27.8533 45.7534 27.08L41.9134 20C41.5134 19.2533 41.0201 18.7467 40.4334 18.48C39.8734 18.2133 39.1801 18.08 38.3534 18.08H35.3134V26.16C35.3134 27.1733 35.0468 27.96 34.5134 28.52C34.0068 29.08 33.2468 29.36 32.2334 29.36ZM35.3134 13.6H40.8734C42.5268 13.6 43.7668 13.2667 44.5934 12.6C45.4468 11.9333 45.8734 10.9333 45.8734 9.6C45.8734 8.29333 45.4468 7.30667 44.5934 6.64C43.7668 5.97333 42.5268 5.64 40.8734 5.64H35.3134V13.6ZM93.3606 29.36C92.4273 29.36 91.7073 29.1067 91.2006 28.6C90.7206 28.0667 90.4806 27.32 90.4806 26.36V3.56C90.4806 2.54667 90.7206 1.77333 91.2006 1.24C91.7073 0.706665 92.374 0.439998 93.2006 0.439998C93.9206 0.439998 94.4673 0.586665 94.8406 0.88C95.2406 1.14667 95.694 1.6 96.2006 2.24L110.241 20.12H109.161V3.4C109.161 2.46667 109.401 1.74667 109.881 1.24C110.387 0.706665 111.107 0.439998 112.041 0.439998C112.974 0.439998 113.681 0.706665 114.161 1.24C114.667 1.74667 114.921 2.46667 114.921 3.4V26.48C114.921 27.36 114.694 28.0667 114.241 28.6C113.787 29.1067 113.174 29.36 112.401 29.36C111.654 29.36 111.054 29.2133 110.601 28.92C110.174 28.6267 109.707 28.16 109.201 27.52L95.2006 9.64H96.2406V26.36C96.2406 27.32 96.0006 28.0667 95.5206 28.6C95.0406 29.1067 94.3206 29.36 93.3606 29.36ZM130.678 29.44C129.558 29.44 128.411 29.3467 127.238 29.16C126.091 29 124.984 28.76 123.918 28.44C122.878 28.12 121.944 27.72 121.118 27.24C120.531 26.92 120.118 26.5067 119.878 26C119.638 25.4667 119.544 24.9333 119.598 24.4C119.678 23.8667 119.878 23.4 120.198 23C120.544 22.5733 120.971 22.3067 121.478 22.2C122.011 22.0667 122.598 22.16 123.238 22.48C124.331 23.0933 125.518 23.5467 126.798 23.84C128.104 24.1333 129.398 24.28 130.678 24.28C132.624 24.28 134.011 23.9867 134.838 23.4C135.664 22.7867 136.078 22.0267 136.078 21.12C136.078 20.3467 135.784 19.7333 135.198 19.28C134.611 18.8267 133.584 18.44 132.118 18.12L127.598 17.16C125.038 16.6267 123.131 15.72 121.878 14.44C120.651 13.1333 120.038 11.4267 120.038 9.32C120.038 7.98667 120.318 6.77333 120.878 5.68C121.438 4.58667 122.224 3.64 123.238 2.84C124.251 2.04 125.451 1.42667 126.838 0.999998C128.251 0.573332 129.798 0.359999 131.478 0.359999C132.971 0.359999 134.438 0.546666 135.878 0.919999C137.318 1.26667 138.584 1.78667 139.678 2.48C140.211 2.8 140.571 3.21333 140.758 3.72C140.971 4.2 141.038 4.69333 140.958 5.2C140.904 5.68 140.704 6.10667 140.358 6.48C140.038 6.85333 139.624 7.09333 139.118 7.2C138.611 7.30667 137.998 7.18667 137.278 6.84C136.398 6.38667 135.464 6.05333 134.478 5.84C133.491 5.62667 132.478 5.52 131.438 5.52C130.318 5.52 129.358 5.66667 128.558 5.96C127.784 6.25333 127.184 6.66667 126.758 7.2C126.358 7.73333 126.158 8.34667 126.158 9.04C126.158 9.81333 126.438 10.44 126.998 10.92C127.558 11.4 128.531 11.7867 129.918 12.08L134.438 13.04C137.051 13.6 138.998 14.5067 140.278 15.76C141.558 16.9867 142.198 18.6133 142.198 20.64C142.198 21.9733 141.931 23.1867 141.398 24.28C140.864 25.3467 140.091 26.2667 139.078 27.04C138.064 27.8133 136.851 28.4133 135.438 28.84C134.024 29.24 132.438 29.44 130.678 29.44ZM149.343 29.36C148.329 29.36 147.556 29.08 147.023 28.52C146.489 27.96 146.223 27.1733 146.223 26.16V3.96C146.223 2.92 146.489 2.13333 147.023 1.6C147.583 1.06666 148.369 0.799998 149.383 0.799998H159.103C162.249 0.799998 164.676 1.6 166.383 3.2C168.089 4.77333 168.943 6.97333 168.943 9.8C168.943 12.6267 168.089 14.84 166.383 16.44C164.676 18.04 162.249 18.84 159.103 18.84H152.423V26.16C152.423 27.1733 152.156 27.96 151.623 28.52C151.116 29.08 150.356 29.36 149.343 29.36ZM152.423 14.04H158.063C159.663 14.04 160.876 13.68 161.703 12.96C162.556 12.24 162.983 11.1867 162.983 9.8C162.983 8.41333 162.556 7.37333 161.703 6.68C160.876 5.98666 159.663 5.64 158.063 5.64H152.423V14.04ZM185.748 29.44C182.975 29.44 180.535 28.84 178.428 27.64C176.348 26.4133 174.721 24.7067 173.548 22.52C172.401 20.3333 171.828 17.7867 171.828 14.88C171.828 12.6667 172.148 10.68 172.788 8.92C173.455 7.13333 174.401 5.61333 175.628 4.36C176.855 3.08 178.321 2.09333 180.028 1.4C181.761 0.706665 183.668 0.359999 185.748 0.359999C188.575 0.359999 191.028 0.959999 193.108 2.16C195.188 3.36 196.801 5.05333 197.948 7.24C199.121 9.4 199.708 11.9333 199.708 14.84C199.708 17.0533 199.375 19.0533 198.708 20.84C198.041 22.6267 197.095 24.16 195.868 25.44C194.641 26.72 193.175 27.7067 191.468 28.4C189.761 29.0933 187.855 29.44 185.748 29.44ZM185.748 24.16C187.321 24.16 188.655 23.8 189.748 23.08C190.868 22.3333 191.721 21.2667 192.308 19.88C192.921 18.4667 193.228 16.8 193.228 14.88C193.228 11.9467 192.575 9.68 191.268 8.08C189.961 6.45333 188.121 5.64 185.748 5.64C184.201 5.64 182.868 6 181.748 6.72C180.628 7.44 179.775 8.49333 179.188 9.88C178.601 11.2667 178.308 12.9333 178.308 14.88C178.308 17.7867 178.961 20.0667 180.268 21.72C181.575 23.3467 183.401 24.16 185.748 24.16ZM207.624 29.36C206.611 29.36 205.837 29.08 205.304 28.52C204.771 27.96 204.504 27.1733 204.504 26.16V3.96C204.504 2.92 204.771 2.13333 205.304 1.6C205.864 1.06666 206.651 0.799998 207.664 0.799998H217.384C220.531 0.799998 222.957 1.56 224.664 3.08C226.371 4.6 227.224 6.72 227.224 9.44C227.224 11.2 226.837 12.72 226.064 14C225.291 15.28 224.171 16.2667 222.704 16.96C221.264 17.6533 219.491 18 217.384 18L217.704 17.32H219.344C220.464 17.32 221.437 17.6 222.264 18.16C223.117 18.6933 223.851 19.52 224.464 20.64L226.944 25.24C227.317 25.9067 227.491 26.56 227.464 27.2C227.437 27.84 227.197 28.36 226.744 28.76C226.291 29.16 225.624 29.36 224.744 29.36C223.864 29.36 223.144 29.1733 222.584 28.8C222.051 28.4267 221.571 27.8533 221.144 27.08L217.304 20C216.904 19.2533 216.411 18.7467 215.824 18.48C215.264 18.2133 214.571 18.08 213.744 18.08H210.704V26.16C210.704 27.1733 210.437 27.96 209.904 28.52C209.397 29.08 208.637 29.36 207.624 29.36ZM210.704 13.6H216.264C217.917 13.6 219.157 13.2667 219.984 12.6C220.837 11.9333 221.264 10.9333 221.264 9.6C221.264 8.29333 220.837 7.30667 219.984 6.64C219.157 5.97333 217.917 5.64 216.264 5.64H210.704V13.6ZM241.414 29.36C240.401 29.36 239.628 29.08 239.094 28.52C238.561 27.96 238.294 27.1733 238.294 26.16V5.92H231.214C230.388 5.92 229.748 5.69333 229.294 5.24C228.841 4.78667 228.614 4.16 228.614 3.36C228.614 2.53333 228.841 1.90667 229.294 1.48C229.748 1.02667 230.388 0.799998 231.214 0.799998H251.574C252.401 0.799998 253.041 1.02667 253.494 1.48C253.948 1.90667 254.174 2.53333 254.174 3.36C254.174 4.16 253.948 4.78667 253.494 5.24C253.041 5.69333 252.401 5.92 251.574 5.92H244.494V26.16C244.494 27.1733 244.228 27.96 243.694 28.52C243.188 29.08 242.428 29.36 241.414 29.36ZM254.484 29.36C253.737 29.36 253.124 29.1867 252.644 28.84C252.19 28.4933 251.897 28.0267 251.764 27.44C251.657 26.8533 251.777 26.2 252.124 25.48L262.364 3.04C262.79 2.13333 263.297 1.48 263.884 1.08C264.47 0.653332 265.15 0.439998 265.924 0.439998C266.697 0.439998 267.377 0.653332 267.964 1.08C268.55 1.48 269.044 2.13333 269.444 3.04L279.764 25.48C280.11 26.2 280.23 26.8667 280.124 27.48C280.044 28.0667 279.777 28.5333 279.324 28.88C278.87 29.2 278.284 29.36 277.564 29.36C276.657 29.36 275.95 29.1467 275.444 28.72C274.964 28.2933 274.537 27.6267 274.164 26.72L271.764 21.16L274.244 22.88H257.564L260.044 21.16L257.684 26.72C257.284 27.6533 256.857 28.3333 256.404 28.76C255.977 29.16 255.337 29.36 254.484 29.36ZM265.844 7.4L260.724 19.6L259.644 18.04H272.164L271.084 19.6L265.924 7.4H265.844ZM286.961 29C285.948 29 285.161 28.72 284.601 28.16C284.068 27.6 283.801 26.8267 283.801 25.84V3.88C283.801 2.84 284.068 2.05333 284.601 1.52C285.134 0.986666 285.908 0.719999 286.921 0.719999C287.908 0.719999 288.668 0.986666 289.201 1.52C289.734 2.05333 290.001 2.84 290.001 3.88V23.76H300.721C301.574 23.76 302.228 23.9867 302.681 24.44C303.161 24.8933 303.401 25.5333 303.401 26.36C303.401 27.2133 303.161 27.8667 302.681 28.32C302.228 28.7733 301.574 29 300.721 29H286.961Z" fill="#C1C1C2"/>
</svg>
